# xmcd
#
# Track frame offsets:
#	150
#	16142
#	29997
#	47354
#	69344
#	85165
#	101285
#	116112
#	130492
#	149909
#	165505
#	180382
#	194634
#	206603
#	224248
#	240451
#	254777
#	269957
#	287358
#	305363
#	323041
#
# Disc length: 4494
#
# Revision: 1
# Processed by: cddbd v1.5.1PL0 Copyright (c) Steve Scherf et al.
# Submitted via: CDex 1.51
# Normalized: r0:DSETVAR1
#
DISCID=49118c15
DTITLE=Various Artist - Toneras de Oro
DYEAR=1900
DGENRE=Merengue
TTITLE0=Asereje - Las Ketchup
TTITLE1=La momia - La bomba
TTITLE2=La mayonesa - Chocolate 2000
TTITLE3=El murguero - Autenticos decadentes
TTITLE4=La guitarra - Autenticos decadentes
TTITLE5=La gelatina - Nietos del futuro
TTITLE6=La mamadera - Afrodisiacos
TTITLE7=Gitana - Los fabulosos cadillac
TTITLE8=Date la vuelta ahora - Afrodisiacos
TTITLE9=Srta. a mi me gusta su stile - Los Rabanes
TTITLE10=La gente esta borracha - Los Borgia
TTITLE11=El baile del gorila - Melody
TTITLE12=El baile del pirulino - Lizandro Mesa
TTITLE13=Mueve la colita - Los Locos
TTITLE14=Madalena - Sergio Mendes
TTITLE15=Tirate al rio - Los Borgia
TTITLE16=Arriba Malena - Chocolate 2000
TTITLE17=El ritmo vuelta - S.B.S
TTITLE18=El baile del burro manoso - D.J. El Tigre
TTITLE19=El baile de la calavera - La aut. S.F.
TTITLE20=La bomba - Azul Azul
EXTD=
EXTT0=
EXTT1=
EXTT2=
EXTT3=
EXTT4=
EXTT5=
EXTT6=
EXTT7=
EXTT8=
EXTT9=
EXTT10=
EXTT11=
EXTT12=
EXTT13=
EXTT14=
EXTT15=
EXTT16=
EXTT17=
EXTT18=
EXTT19=
EXTT20=
PLAYORDER=
